<svg width="28" height="28" viewBox="0 0 28 28" fill="none" xmlns="http://www.w3.org/2000/svg">
<path d="M15.5 19.6C14.4922 23.15 12.8137 26 9.5 26C6.18629 26 3.5 23.1346 3.5 19.6H15.5ZM15.5 19.6L19.5614 6.60345C19.8223 5.7685 20.5956 5.2 21.4704 5.2H23.2287C24.0045 5.2 24.7103 5.64867 25.0396 6.35113L26 8.4M5 14.8L3.28239 12.9679C2.56116 12.1986 2.56116 11.0014 3.28239 10.2321L5.44739 7.92278C6.0679 7.2609 6.16516 6.26426 5.68431 5.4949L3.5 2M11 14.8L9.28239 12.9679C8.56116 12.1986 8.56116 11.0014 9.28239 10.2321L11.4474 7.92278C12.0679 7.2609 12.1652 6.26426 11.6843 5.4949L9.5 2" stroke="#1D1719" stroke-width="4" stroke-linecap="round" stroke-linejoin="round"/>
<path d="M9.5 26C12.8137 26 14.4922 23.15 15.5 19.6H3.5C3.5 23.1346 6.18629 26 9.5 26Z" fill="#D9D9D9"/>
<path d="M15.5 19.6C14.4922 23.15 12.8137 26 9.5 26C6.18629 26 3.5 23.1346 3.5 19.6H15.5ZM15.5 19.6L19.5614 6.60345C19.8223 5.7685 20.5956 5.2 21.4704 5.2H23.2287C24.0045 5.2 24.7103 5.64867 25.0396 6.35113L26 8.4M5 14.8L3.28239 12.9679C2.56116 12.1986 2.56116 11.0014 3.28239 10.2321L5.44739 7.92278C6.0679 7.2609 6.16516 6.26426 5.68431 5.4949L3.5 2M11 14.8L9.28239 12.9679C8.56116 12.1986 8.56116 11.0014 9.28239 10.2321L11.4474 7.92278C12.0679 7.2609 12.1652 6.26426 11.6843 5.4949L9.5 2" stroke="#D9D9D9" stroke-linecap="round" stroke-linejoin="round"/>
</svg>
