<svg width="41" height="38" viewBox="0 0 41 38" fill="none" xmlns="http://www.w3.org/2000/svg">
<path d="M0 35.625C0 36.9367 1.22376 38 2.73333 38H38.2667C39.7762 38 41 36.9367 41 35.625C41 34.3133 39.7762 33.25 38.2667 33.25H2.73333C1.22376 33.25 0 34.3133 0 35.625Z" fill="white"/>
<path d="M0 19C0 20.3117 1.22376 21.375 2.73333 21.375L38.2667 21.375C39.7762 21.375 41 20.3117 41 19C41 17.6883 39.7762 16.625 38.2667 16.625L2.73333 16.625C1.22376 16.625 0 17.6883 0 19Z" fill="white"/>
<path d="M0 2.375C0 3.68668 1.22376 4.75 2.73333 4.75H38.2667C39.7762 4.75 41 3.68668 41 2.375C41 1.06332 39.7762 0 38.2667 0H2.73333C1.22376 0 0 1.06332 0 2.375Z" fill="white"/>
</svg>
