<svg width="13" height="13" viewBox="0 0 13 13" fill="none" xmlns="http://www.w3.org/2000/svg">
<path d="M0.224381 11.9287C0.365913 12.0667 0.556759 12.1423 0.754381 12.1387C0.951409 12.1391 1.14109 12.064 1.28438 11.9287L10.6144 2.58994V10.6487C10.6144 11.0629 10.9502 11.3987 11.3644 11.3987C11.5658 11.4042 11.7608 11.3273 11.9042 11.1857C12.0477 11.0442 12.1272 10.8502 12.1244 10.6487V0.916501C12.1504 0.802408 12.1498 0.681876 12.1198 0.56444C12.0519 0.298706 11.8444 0.0912065 11.5787 0.0233429C11.4612 -0.00664802 11.3407 -0.00725396 11.2266 0.0187285H1.49438C1.08017 0.0187285 0.744381 0.354515 0.744381 0.768728C0.744381 1.18294 1.08017 1.51873 1.49438 1.51873H9.56438L0.224381 10.8587C0.08085 10.9997 0 11.1925 0 11.3937C0 11.5949 0.08085 11.7877 0.224381 11.9287Z" fill="#f5e1c8"/>
</svg>
